<svg width="21" height="21" viewBox="0 0 21 21" fill="none" xmlns="http://www.w3.org/2000/svg">
<path d="M7.31143 0.714294C7.45488 0.714294 7.5712 0.830609 7.5712 0.97406V2.18793H7.88956C8.04018 2.18793 8.16202 2.31074 8.16202 2.46136V3.96722C8.16202 4.11067 8.0457 4.22699 7.90225 4.22699H7.5712C7.5712 4.22699 7.38295 5.92248 8.42178 7.24066C9.19445 8.22105 10.2205 8.8597 10.2206 10.0971V19.1567C10.2206 19.7305 9.75535 20.1948 9.18155 20.1948H2.94815C2.37435 20.1948 1.90909 19.7305 1.90909 19.1567V10.0971C1.90922 8.85975 2.93526 8.22098 3.70792 7.24066C4.74675 5.92248 4.5585 4.22699 4.5585 4.22699H4.22745C4.084 4.22699 3.96768 4.11067 3.96768 3.96722V2.46136C3.96768 2.31079 4.08959 2.18801 4.24014 2.18793H4.5585V0.97406C4.5585 0.830609 4.67482 0.714294 4.81827 0.714294H7.31143Z" fill="#E1B7FB"/>
<path d="M7.5712 2.18793H7.1962V2.56293H7.5712V2.18793ZM7.5712 4.22699V3.85199H7.23553L7.19849 4.18561L7.5712 4.22699ZM8.42178 7.24066L8.12725 7.47277L8.12726 7.47278L8.42178 7.24066ZM10.2206 10.0971H10.5956V10.0971L10.2206 10.0971ZM1.90909 10.0971L1.53409 10.0971V10.0971H1.90909ZM3.70792 7.24066L4.00243 7.47279L4.00245 7.47277L3.70792 7.24066ZM4.5585 4.22699L4.93121 4.18561L4.89417 3.85199H4.5585V4.22699ZM4.24014 2.18793V1.81293H4.23994L4.24014 2.18793ZM4.5585 2.18793V2.56293H4.9335V2.18793H4.5585ZM4.81827 0.714294V1.08929V0.714294ZM7.31143 0.714294V1.08929C7.24778 1.08929 7.1962 1.03772 7.1962 0.97406H7.5712H7.9462C7.9462 0.623503 7.66199 0.339294 7.31143 0.339294V0.714294ZM7.5712 0.97406H7.1962V2.18793H7.5712H7.9462V0.97406H7.5712ZM7.5712 2.18793V2.56293H7.88956V2.18793V1.81293H7.5712V2.18793ZM7.88956 2.18793V2.56293C7.83133 2.56293 7.78702 2.5161 7.78702 2.46136H8.16202H8.53702C8.53702 2.10538 8.24903 1.81293 7.88956 1.81293V2.18793ZM8.16202 2.46136H7.78702V3.96722H8.16202H8.53702V2.46136H8.16202ZM8.16202 3.96722H7.78702C7.78702 3.90357 7.8386 3.85199 7.90225 3.85199V4.22699V4.60199C8.25281 4.60199 8.53702 4.31778 8.53702 3.96722H8.16202ZM7.90225 4.22699V3.85199H7.5712V4.22699V4.60199H7.90225V4.22699ZM7.5712 4.22699C7.19849 4.18561 7.19847 4.18574 7.19846 4.18588C7.19845 4.18593 7.19844 4.18608 7.19842 4.18619C7.1984 4.18641 7.19837 4.18666 7.19834 4.18693C7.19828 4.18747 7.19821 4.18812 7.19814 4.18887C7.19798 4.19038 7.19778 4.1923 7.19755 4.19462C7.19708 4.19927 7.19648 4.20553 7.19579 4.21336C7.19441 4.22902 7.19266 4.25092 7.1909 4.27857C7.18738 4.33383 7.1838 4.4122 7.18303 4.50955C7.18149 4.7039 7.19115 4.97583 7.23558 5.29174C7.32397 5.92016 7.55314 6.74428 8.12725 7.47277L8.42178 7.24066L8.71631 7.00855C8.2516 6.41887 8.05547 5.73615 7.97827 5.18728C7.93991 4.91454 7.9317 4.68021 7.933 4.51546C7.93365 4.43326 7.93666 4.36887 7.93938 4.32627C7.94074 4.30498 7.94202 4.28917 7.94288 4.27934C7.94332 4.27443 7.94365 4.27102 7.94383 4.26917C7.94392 4.26824 7.94398 4.26771 7.94399 4.26757C7.944 4.26751 7.944 4.26754 7.94398 4.26767C7.94398 4.26774 7.94397 4.26783 7.94395 4.26794C7.94395 4.268 7.94394 4.26811 7.94393 4.26814C7.94392 4.26825 7.94391 4.26837 7.5712 4.22699ZM8.42178 7.24066L8.12726 7.47278C8.33199 7.73255 8.55163 7.9673 8.75607 8.18394C8.96431 8.40462 9.15372 8.60342 9.31925 8.80822C9.64405 9.21009 9.84556 9.59763 9.84561 10.0971L10.2206 10.0971L10.5956 10.0971C10.5955 9.35917 10.284 8.80869 9.90255 8.33678C9.71497 8.1047 9.50299 7.88267 9.30154 7.6692C9.09628 7.45169 8.89791 7.23897 8.71631 7.00854L8.42178 7.24066ZM10.2206 10.0971H9.84561V19.1567H10.2206H10.5956V10.0971H10.2206ZM10.2206 19.1567H9.84561C9.84561 19.5229 9.5487 19.8198 9.18155 19.8198V20.1948V20.5698C9.962 20.5698 10.5956 19.938 10.5956 19.1567H10.2206ZM9.18155 20.1948V19.8198H2.94815V20.1948V20.5698H9.18155V20.1948ZM2.94815 20.1948V19.8198C2.581 19.8198 2.28409 19.5229 2.28409 19.1567H1.90909H1.53409C1.53409 19.938 2.1677 20.5698 2.94815 20.5698V20.1948ZM1.90909 19.1567H2.28409V10.0971H1.90909H1.53409V19.1567H1.90909ZM1.90909 10.0971L2.28409 10.0971C2.28414 9.59766 2.48565 9.2101 2.81046 8.80821C2.97599 8.6034 3.1654 8.4046 3.37364 8.18392C3.57808 7.96728 3.79771 7.73253 4.00243 7.47279L3.70792 7.24066L3.4134 7.00853C3.23179 7.23895 3.03343 7.45167 2.82817 7.66918C2.62671 7.88266 2.41473 8.10469 2.22715 8.33678C1.84574 8.8087 1.53417 9.3592 1.53409 10.0971L1.90909 10.0971ZM3.70792 7.24066L4.00245 7.47277C4.57656 6.74428 4.80573 5.92016 4.89412 5.29174C4.93855 4.97583 4.94821 4.7039 4.94667 4.50955C4.9459 4.4122 4.94232 4.33383 4.9388 4.27857C4.93704 4.25092 4.93529 4.22902 4.93391 4.21336C4.93322 4.20553 4.93262 4.19927 4.93215 4.19462C4.93192 4.1923 4.93172 4.19038 4.93156 4.18887C4.93149 4.18812 4.93142 4.18747 4.93136 4.18693C4.93133 4.18666 4.9313 4.18641 4.93128 4.18619C4.93126 4.18608 4.93125 4.18593 4.93124 4.18588C4.93123 4.18574 4.93121 4.18561 4.5585 4.22699C4.18579 4.26837 4.18578 4.26825 4.18577 4.26814C4.18576 4.26811 4.18575 4.268 4.18575 4.26794C4.18573 4.26783 4.18572 4.26774 4.18572 4.26767C4.1857 4.26754 4.1857 4.26751 4.1857 4.26757C4.18572 4.26771 4.18578 4.26824 4.18587 4.26917C4.18605 4.27102 4.18638 4.27443 4.18682 4.27934C4.18768 4.28917 4.18896 4.30498 4.19032 4.32627C4.19304 4.36887 4.19605 4.43326 4.1967 4.51546C4.198 4.68021 4.18979 4.91454 4.15143 5.18728C4.07423 5.73615 3.8781 6.41887 3.41339 7.00855L3.70792 7.24066ZM4.5585 4.22699V3.85199H4.22745V4.22699V4.60199H4.5585V4.22699ZM4.22745 4.22699V3.85199C4.2911 3.85199 4.34268 3.90357 4.34268 3.96722H3.96768H3.59268C3.59268 4.31778 3.87689 4.60199 4.22745 4.60199V4.22699ZM3.96768 3.96722H4.34268V2.46136H3.96768H3.59268V3.96722H3.96768ZM3.96768 2.46136H4.34268C4.34268 2.51635 4.29829 2.5629 4.24034 2.56293L4.24014 2.18793L4.23994 1.81293C3.88089 1.81312 3.59268 2.10523 3.59268 2.46136H3.96768ZM4.24014 2.18793V2.56293H4.5585V2.18793V1.81293H4.24014V2.18793ZM4.5585 2.18793H4.9335V0.97406H4.5585H4.1835V2.18793H4.5585ZM4.5585 0.97406H4.9335C4.9335 1.03772 4.88192 1.08929 4.81827 1.08929V0.714294V0.339294C4.46771 0.339294 4.1835 0.623503 4.1835 0.97406H4.5585ZM4.81827 0.714294V1.08929H7.31143V0.714294V0.339294H4.81827V0.714294Z" fill="#6E0BC6"/>
<rect opacity="0.5" x="3.8961" y="10.4286" width="4.32468" height="7.01299" rx="0.831169" fill="#6E0BC6"/>
<path d="M19.1272 6.75165C19.159 6.8652 19.1994 7.01211 19.2424 7.18622C19.3499 7.62141 19.4791 8.22133 19.5647 8.88251C19.6504 9.54525 19.6916 10.2595 19.6292 10.9255C19.5664 11.5948 19.4011 12.1872 19.0989 12.6315C18.6126 13.3464 17.5972 13.9448 16.7249 14.3483C16.4372 14.4814 16.2434 14.7697 16.2434 15.0964V18.6931L16.4846 18.7849L17.7434 19.2653C17.8798 19.3174 17.9709 19.4484 17.9709 19.5944V20.0534H13.1233V19.6032C13.1234 19.4552 13.2157 19.3228 13.3547 19.2722L14.72 18.7761L14.967 18.6862V15.0905C14.967 14.7641 14.7738 14.4757 14.4866 14.3425C13.6165 13.9388 12.6081 13.3429 12.1243 12.6315C11.8222 12.1873 11.6578 11.5945 11.595 10.9255C11.5326 10.26 11.5738 9.54679 11.6594 8.88446C11.7796 7.95477 11.9851 7.14785 12.0959 6.75165H19.1272Z" fill="#E1B7FB" stroke="#6E0BC6" stroke-width="0.75"/>
</svg>
